<svg xmlns="http://www.w3.org/2000/svg" xmlns:xlink="http://www.w3.org/1999/xlink" width="600" zoomAndPan="magnify" viewBox="0 0 450 225" height="300" preserveAspectRatio="xMidYMid meet" version="1.0"><path fill="#4c89b5" d="M 397.082031 132.410156 C 391.953125 129.578125 387.785156 125.628906 385.878906 119.332031 C 384.894531 116.082031 385.671875 112.585938 387.84375 110.757812 C 389.890625 109.039062 392.886719 109.667969 395.03125 112.144531 C 396.828125 114.222656 397.277344 117.046875 397.480469 119.832031 C 397.679688 121.28125 397.890625 122.535156 398.015625 123.828125 C 398.175781 125.628906 398.703125 126.957031 400.714844 126.644531 C 402.8125 126.324219 404.507812 125.300781 405.359375 122.84375 C 405.824219 121.496094 406.039062 120.183594 405.925781 118.839844 C 405.628906 115.261719 404.613281 112.085938 403 109.292969 C 399.929688 103.980469 394.453125 102.667969 388.890625 105.78125 C 381.644531 109.824219 378.640625 114.820312 379.105469 122.355469 C 379.269531 124.941406 380.023438 127.308594 380.859375 129.601562 C 383.070312 135.667969 387.34375 139.707031 391.59375 143.808594 C 395.523438 147.609375 399.945312 150.917969 402.445312 156.230469 C 404.253906 160.097656 402.199219 163.820312 397.816406 164.679688 C 396.597656 164.917969 395.359375 164.953125 394.199219 164.84375 C 389.121094 164.402344 387.34375 160.300781 386.199219 155.691406 C 385.328125 152.1875 385.371094 148.230469 383.96875 144.972656 C 383.453125 143.777344 382.609375 142.605469 381.351562 142.128906 C 377.027344 140.5 373.808594 146.234375 373.167969 149.597656 C 372.398438 153.652344 372.800781 157.886719 374.160156 161.773438 C 376.871094 169.496094 383.480469 175.800781 391.726562 176.988281 C 397.621094 177.839844 403.507812 176.417969 408.527344 170.398438 C 412.957031 165.082031 413.628906 159.097656 412.359375 153.839844 C 410.042969 144.242188 405.097656 136.839844 397.082031 132.410156 " fill-opacity="1" fill-rule="nonzero"/><path fill="#4c89b5" d="M 172.882812 123.269531 C 164.855469 119.800781 158.953125 123.605469 158.902344 132.171875 C 158.839844 143.34375 159.066406 154.535156 158.902344 165.695312 C 158.878906 167.269531 158.855469 168.832031 158.8125 170.40625 C 158.796875 171.050781 158.78125 171.699219 158.765625 172.347656 C 158.746094 173.148438 158.746094 174.03125 159.273438 174.648438 C 160.679688 176.300781 164.339844 175.671875 166.140625 175.269531 C 168.605469 174.730469 170.898438 173.589844 172.957031 172.132812 C 183.96875 164.28125 188.367188 153.503906 185.933594 140.253906 C 184.527344 132.539062 180.300781 126.480469 172.882812 123.269531 M 167.246094 165.484375 C 168.328125 153.371094 168.15625 142.074219 167.101562 130.28125 C 172.652344 132.5 175.238281 136.398438 176.273438 141.394531 C 178.210938 150.851562 175.492188 158.71875 167.246094 165.484375 " fill-opacity="1" fill-rule="nonzero"/><path fill="#4c89b5" d="M 364.613281 117.777344 C 360.230469 115.230469 355.761719 114.484375 351.296875 117.246094 C 347.261719 119.742188 345.277344 123.8125 345.949219 128.464844 C 346.90625 135.121094 350.789062 140.132812 354.492188 145.421875 C 356.832031 148.769531 359.921875 150.785156 361.417969 154.765625 C 362.320312 157.15625 361.082031 160.800781 358.460938 161.945312 C 355.84375 163.101562 353.433594 161.609375 351.675781 159.433594 C 350.289062 157.714844 349.609375 155.355469 349.511719 153.121094 C 349.488281 152.628906 349.4375 152.105469 349.40625 151.652344 C 349.265625 149.835938 348.863281 148.117188 346.84375 147.835938 C 344.8125 147.558594 343.871094 149.105469 343.117188 150.734375 C 342.804688 151.40625 342.566406 152.195312 342.535156 152.929688 C 341.773438 153.382812 341.160156 154.214844 340.59375 154.894531 C 338.664062 157.207031 337.058594 159.785156 335.101562 162.070312 C 331.800781 165.902344 327.65625 165.15625 325.960938 160.488281 C 324.929688 157.640625 324.210938 154.707031 324.527344 151.433594 C 332.472656 150.382812 336.089844 148.648438 340.273438 143.980469 C 344.714844 139.035156 345.875 132.035156 343.050781 127.265625 C 338.335938 119.316406 328.238281 118.792969 321.605469 126.449219 C 311.8125 137.757812 310.925781 150.785156 315.546875 164.335938 C 317.804688 170.960938 322.867188 173.753906 329.566406 173.507812 C 334.632812 173.320312 340.808594 168.636719 344.214844 163.101562 C 345.253906 165.679688 346.816406 168.070312 349.054688 170.355469 C 351.773438 173.140625 355.546875 174.589844 359.257812 173.558594 C 368.148438 171.070312 371.910156 164.371094 370.492188 155.574219 C 369.074219 146.773438 363.074219 142.367188 357.136719 136.535156 C 355.054688 134.496094 352.460938 132.859375 351.347656 130.011719 C 350.378906 127.546875 350.722656 125.398438 353.433594 124.113281 C 356.144531 122.828125 358.722656 124.195312 360.820312 126.308594 C 362.375 127.875 363.917969 130.027344 365.449219 131.507812 C 366.796875 132.820312 368.109375 133.382812 369.804688 132.648438 C 371.5 131.910156 372.589844 130.738281 372.359375 128.652344 C 371.792969 123.722656 368.992188 120.324219 364.613281 117.777344 M 331.292969 130.519531 C 332.101562 129.78125 332.855469 128.59375 334.207031 129.25 C 335.722656 129.984375 336.371094 131.402344 336.214844 133 C 335.730469 137.945312 330.523438 144.167969 324.929688 143.136719 C 326.085938 138.289062 327.605469 133.867188 331.292969 130.519531 " fill-opacity="1" fill-rule="nonzero"/><path fill="#4c89b5" d="M 248.347656 116.910156 C 248.046875 116.65625 247.695312 116.464844 247.292969 116.375 C 245.71875 116.007812 243.492188 116.203125 242.765625 117.925781 C 241.855469 120.070312 242.492188 122.558594 242.535156 124.8125 C 242.59375 128.117188 242.476562 141.8125 242.230469 145.109375 C 241.804688 150.792969 241.28125 157.222656 238.75 162.398438 C 237.367188 165.222656 234.035156 165 232.371094 162.035156 C 230.769531 159.179688 230.332031 155.917969 229.792969 152.726562 C 229.015625 148.828125 229.03125 144.660156 228.917969 140.707031 C 228.851562 138.320312 228.8125 135.929688 228.835938 133.539062 C 228.859375 130.46875 229.382812 127.242188 225.429688 127.4375 C 222.71875 127.578125 220.574219 128.601562 220.375 131.699219 C 220.300781 132.910156 220.246094 134.121094 220.203125 135.332031 C 220.113281 138.140625 220.089844 140.949219 220.105469 143.757812 C 220.148438 148.6875 220.15625 153.742188 220.890625 158.628906 C 220.957031 160.382812 221.933594 162.871094 223.046875 165.230469 C 225.355469 170.144531 228.925781 173.746094 234.445312 174.03125 C 240.25 174.335938 244.359375 171.175781 247.105469 166.023438 C 248.75 162.929688 249.445312 159.507812 250.035156 156.074219 C 250.796875 151.644531 250.773438 136.617188 250.804688 132.132812 C 250.828125 128.191406 251.386719 124.042969 250.175781 120.226562 C 249.804688 119.054688 249.273438 117.679688 248.347656 116.910156 " fill-opacity="1" fill-rule="nonzero"/><path fill="#4c89b5" d="M 153.917969 129.125 C 153.113281 126.546875 152.066406 124.328125 149.117188 124.539062 C 146.078125 124.761719 145.320312 127.347656 145.238281 129.894531 C 145.113281 133.964844 145.105469 138.042969 145.300781 142.113281 C 145.523438 146.707031 146.03125 151.285156 146.414062 155.878906 C 144.246094 151.152344 142.550781 146.347656 140.5625 141.671875 C 138.554688 136.960938 136.375 132.304688 132.617188 128.660156 C 128.679688 124.84375 123.914062 124.949219 120.808594 128.929688 C 119.5 130.609375 119.097656 132.695312 118.820312 134.777344 C 117.207031 146.894531 117.566406 159.203125 115.324219 171.265625 C 114.863281 173.738281 115.625 175.753906 118.328125 176.324219 C 121.078125 176.90625 123.101562 175.828125 124.132812 173.140625 C 124.847656 171.28125 125.15625 169.339844 125.363281 167.359375 C 126.246094 158.808594 125.4375 150.171875 127 140.738281 C 127.835938 142.285156 128.300781 143.0625 128.695312 143.882812 C 131.535156 149.746094 133.535156 155.929688 135.558594 162.101562 C 136.6875 165.542969 138.226562 168.808594 140.898438 171.355469 C 144.15625 174.457031 147.957031 174.042969 150.230469 170.21875 C 151.527344 168.03125 152.476562 165.671875 153.105469 163.148438 C 154.949219 155.820312 154.851562 148.371094 154.570312 140.941406 C 154.433594 137.003906 155.136719 133.046875 153.917969 129.125 " fill-opacity="1" fill-rule="nonzero"/><path fill="#4c89b5" d="M 309.011719 126.039062 C 308.46875 123.433594 307.464844 121.25 304.582031 121.167969 C 301.699219 121.085938 300.617188 123.363281 300.3125 125.988281 C 299.832031 130.191406 299.632812 134.269531 299.699219 138.574219 C 299.773438 143.449219 300.207031 148.566406 300.683594 153.480469 C 298.449219 148.164062 296.808594 142.972656 294.910156 137.421875 C 293.011719 131.871094 290.628906 125.148438 286.5 120.96875 C 282.371094 116.800781 278.320312 117.1875 274.734375 121.117188 C 273.21875 122.78125 272.914062 125.613281 272.769531 127.316406 C 271.890625 137.242188 272.160156 145.839844 272.332031 155.796875 C 272.367188 157.835938 273.519531 160.375 276.273438 160.339844 C 279.03125 160.300781 280.667969 158.769531 281.203125 156.15625 C 281.570312 154.347656 281.136719 151.359375 281.011719 150.015625 C 280.496094 144.21875 280.652344 139.851562 281.167969 134.335938 C 281.691406 135.449219 282.554688 137.257812 282.980469 138.25 C 286.066406 145.421875 287.800781 153.121094 290.136719 160.285156 C 291.4375 164.28125 293.109375 168.078125 296.097656 170.5625 C 299.734375 173.582031 302.949219 172.707031 305.253906 168.914062 C 306.570312 166.753906 307.308594 164.117188 307.71875 161.472656 C 308.914062 153.800781 308.886719 145.765625 308.996094 138.011719 C 309.050781 133.941406 309.828125 130.003906 309.011719 126.039062 " fill-opacity="1" fill-rule="nonzero"/><path fill="#4c89b5" d="M 111.394531 147.027344 C 111.253906 141.238281 111.523438 135.390625 110.523438 129.683594 C 110.082031 127.136719 109.410156 124.253906 106.199219 124.722656 C 103.1875 125.15625 101.949219 127.160156 101.933594 130.699219 C 101.886719 137.960938 101.378906 145.207031 100.796875 152.449219 C 100.328125 158.210938 99.773438 164.035156 100.835938 169.816406 C 101.410156 172.910156 102.695312 175.300781 105.839844 175.359375 C 108.199219 175.402344 110.949219 172.304688 111.492188 168.996094 C 111.472656 161.800781 111.566406 154.40625 111.394531 147.027344 " fill-opacity="1" fill-rule="nonzero"/><path fill="#4c89b5" d="M 210.164062 140.761719 C 207.757812 141.007812 205.21875 141.253906 202.796875 141.515625 C 202.785156 135.605469 203.007812 129.683594 202.984375 123.777344 C 205.1875 123.707031 206.601562 123.761719 208.976562 123.664062 C 214.792969 123.417969 221.941406 123.640625 227.523438 121.847656 C 230.515625 120.878906 231.578125 119.691406 231.355469 116.375 C 231.070312 112.078125 226.402344 111.25 222.367188 111.691406 C 216.699219 112.308594 209.476562 112.765625 204.210938 113.476562 C 198.945312 114.199219 195.785156 114.246094 190.921875 115.605469 C 188.75 116.210938 186.972656 117.449219 187.261719 120.144531 C 187.554688 122.835938 188.996094 124.082031 191.714844 124.082031 C 191.976562 124.082031 192.246094 124.007812 192.492188 124.097656 C 191.945312 126.472656 191.542969 131.199219 191.421875 133.253906 C 190.980469 140.632812 190.429688 149.851562 190.644531 156.066406 C 190.863281 162.28125 191.140625 164.714844 191.4375 170.078125 C 191.476562 170.878906 191.675781 171.429688 191.960938 172.058594 C 192.886719 174.125 194.164062 175.753906 196.5625 175.605469 C 198.960938 175.457031 200.050781 173.550781 200.355469 171.339844 C 201.027344 166.394531 201.417969 161.363281 201.886719 156.425781 C 202.035156 154.839844 201.976562 153.347656 202 151.785156 C 205.421875 151.515625 209.214844 151.496094 212.5625 151.179688 C 215.90625 150.851562 216.347656 149.179688 216.414062 146.117188 C 216.445312 144.5625 216.609375 142.777344 215.488281 141.359375 C 214.359375 139.917969 211.859375 140.597656 210.164062 140.761719 " fill-opacity="1" fill-rule="nonzero"/><path fill="#4c89b5" d="M 277.328125 165.109375 C 275.085938 163.847656 272.480469 163.910156 270 164.082031 C 268.453125 164.191406 267.066406 164.355469 265.5625 164.410156 C 266.386719 149.792969 266.640625 135.023438 264.53125 120.570312 C 264.136719 117.914062 263.253906 116.105469 260.542969 116.203125 C 257.832031 116.300781 256.890625 118.152344 256.570312 120.78125 C 255.734375 127.691406 256.128906 139.027344 255.898438 145.046875 C 255.613281 152.691406 255.351562 156.363281 255.171875 162.945312 C 255.054688 167.046875 254.980469 171.578125 258.566406 174.125 C 260.714844 175.636719 264.25 174.605469 266.773438 174.679688 C 270.15625 174.769531 273.855469 174.394531 276.945312 173.238281 C 278.949219 172.484375 280.046875 171.25 280.152344 169.25 C 280.253906 167.246094 278.976562 166.039062 277.328125 165.109375 " fill-opacity="1" fill-rule="nonzero"/><path fill="#4c89b5" d="M 114.242188 113.625 C 110.515625 112.511719 107.660156 109.480469 106.78125 105.691406 C 106.765625 105.609375 106.699219 105.574219 106.636719 105.558594 C 106.570312 105.558594 106.503906 105.601562 106.488281 105.671875 C 105.375 109.398438 102.34375 112.257812 98.554688 113.132812 C 98.378906 113.175781 98.371094 113.421875 98.542969 113.46875 C 102.269531 114.582031 105.128906 117.613281 106.003906 121.40625 C 106.019531 121.484375 106.085938 121.519531 106.152344 121.535156 C 106.21875 121.527344 106.28125 121.496094 106.308594 121.421875 C 107.421875 117.6875 110.449219 114.835938 114.242188 113.960938 C 114.414062 113.917969 114.414062 113.675781 114.242188 113.625 " fill-opacity="1" fill-rule="nonzero"/><path fill="#4c89b5" d="M 128.605469 115.664062 C 134.335938 118.703125 140.363281 119.5625 146.136719 115.6875 C 151.238281 112.265625 152.703125 106.789062 152.15625 101.269531 C 151.148438 91.210938 147.234375 82.261719 139.890625 74.984375 C 135.1875 70.332031 131.585938 64.976562 130.539062 58.226562 C 130.003906 54.75 131.242188 51.6875 133.632812 50.761719 C 135.894531 49.882812 138.785156 51.621094 140.570312 54.796875 C 142.066406 57.46875 142.132812 60.339844 141.96875 63.085938 C 141.96875 64.550781 142.019531 65.828125 141.960938 67.105469 C 141.878906 68.890625 142.222656 70.363281 144.261719 70.824219 C 146.382812 71.304688 148.199219 70.960938 149.371094 68.929688 C 150.019531 67.816406 150.394531 66.636719 150.46875 65.304688 C 150.65625 61.757812 150.078125 58.335938 148.847656 55.050781 C 146.515625 48.804688 141.265625 45.480469 135.335938 46.363281 C 127.613281 47.507812 123.960938 51.152344 123.421875 58.546875 C 123.234375 61.085938 123.667969 63.632812 124.191406 66.148438 C 125.574219 72.796875 129.261719 78.273438 132.921875 83.808594 C 136.304688 88.929688 140.25 93.777344 142.003906 99.8125 C 143.28125 104.191406 140.742188 106.992188 136.292969 106.15625 C 135.058594 105.925781 133.820312 105.484375 132.683594 104.953125 C 127.710938 102.609375 126.5 98.015625 125.984375 93.167969 C 125.59375 89.484375 126.164062 85.710938 125.214844 82.058594 C 123.945312 77.195312 119.730469 75.90625 115.929688 79.152344 C 110.566406 83.734375 112.792969 94.175781 114.945312 99.867188 C 117.460938 106.550781 122.265625 112.296875 128.605469 115.664062 " fill-opacity="1" fill-rule="nonzero"/><path fill="#4c89b5" d="M 194.6875 107.621094 C 197.382812 107.992188 199.316406 106.722656 200.175781 104.035156 C 200.765625 102.175781 200.960938 100.292969 200.984375 98.222656 C 201.101562 89.3125 200.101562 80.238281 200.609375 71.289062 C 201.171875 72.191406 202.058594 73.523438 202.53125 74.382812 C 205.949219 80.601562 208.40625 87.101562 211.023438 93.546875 C 212.480469 97.140625 214.242188 100.570312 217.140625 102.996094 C 220.679688 105.953125 224.125 105.289062 226.3125 101.300781 C 227.558594 99.023438 228.261719 96.496094 228.648438 93.75 C 229.761719 85.808594 229.074219 77.570312 228.210938 69.609375 C 227.761719 65.410156 227.910156 61.210938 226.46875 57.328125 C 225.519531 54.773438 224.234375 52.726562 221.34375 53.160156 C 218.453125 53.59375 217.820312 56.132812 217.945312 58.800781 C 218.140625 63.058594 218.527344 67.292969 219.066406 71.59375 C 219.679688 76.457031 220.613281 81.492188 221.367188 86.363281 C 218.859375 81.550781 216.722656 76.234375 214.25 71.460938 C 211.785156 66.679688 209.3125 62.027344 205.203125 58.636719 C 201.101562 55.238281 196.734375 55.574219 193.558594 59.726562 C 192.214844 61.480469 192.066406 63.640625 191.984375 65.761719 C 191.496094 78.117188 192.265625 90.507812 191.296875 102.847656 C 191.109375 105.386719 191.996094 107.253906 194.6875 107.621094 " fill-opacity="1" fill-rule="nonzero"/><path fill="#4c89b5" d="M 325.878906 103.421875 C 326.273438 102.03125 326.066406 99.679688 324.054688 100.636719 C 322.875 101.203125 322.226562 102.546875 321.398438 103.496094 C 320.097656 104.976562 318.789062 106.453125 317.386719 107.84375 C 314.875 110.347656 313.5625 110.003906 312.007812 106.878906 C 310.714844 104.265625 310.222656 101.433594 309.632812 98.613281 C 308.019531 90.835938 306.5625 82.949219 298.929688 78.339844 C 305.914062 71.730469 307.472656 69.546875 308.632812 64.730469 C 310.4375 57.253906 306.742188 50.128906 300.183594 48.46875 C 291.578125 46.28125 284.347656 50.390625 282.480469 58.5625 C 281.945312 60.890625 281.636719 63.230469 281.652344 65.648438 C 281.71875 76.839844 281.644531 91.53125 281.710938 102.734375 C 281.726562 105.230469 280.921875 108.851562 284.714844 108.898438 C 288.074219 108.941406 288.136719 105.453125 288.507812 102.890625 C 289.144531 98.34375 289.660156 90.289062 290.226562 85.765625 C 294.761719 85.75 297.136719 88.132812 298.316406 91.761719 C 299.28125 94.726562 299.90625 97.796875 300.617188 100.84375 C 301.707031 105.5 302.820312 110.121094 306.300781 113.730469 C 309.410156 116.957031 314.40625 117.613281 317.9375 115 C 321.898438 112.085938 324.527344 108.195312 325.878906 103.421875 M 291.199219 75.390625 C 291.460938 70.070312 291.445312 64.828125 292.4375 59.6875 C 292.78125 57.902344 293.363281 55.917969 295.828125 55.773438 C 298.355469 55.617188 298.90625 57.589844 299.503906 59.332031 C 301.691406 65.6875 298.710938 71.492188 291.199219 75.390625 " fill-opacity="1" fill-rule="nonzero"/><path fill="#4c89b5" d="M 187.113281 91.128906 C 185.117188 89.863281 183.878906 91.820312 182.816406 93.167969 C 180.882812 95.625 179.277344 98.386719 177.320312 100.816406 C 174.027344 104.902344 169.875 104.109375 168.179688 99.132812 C 167.148438 96.09375 166.429688 92.964844 166.75 89.476562 C 174.691406 88.355469 178.3125 86.511719 182.496094 81.535156 C 186.933594 76.261719 188.097656 68.792969 185.269531 63.707031 C 180.554688 55.230469 170.457031 54.675781 163.824219 62.839844 C 154.03125 74.890625 153.148438 88.789062 157.765625 103.242188 C 160.027344 110.308594 165.085938 113.289062 171.785156 113.019531 C 178.300781 112.757812 186.65625 104.578125 188.578125 96.707031 C 189.136719 94.4375 189.039062 92.351562 187.113281 91.128906 M 173.511719 67.1875 C 174.324219 66.402344 175.078125 65.132812 176.425781 65.828125 C 177.941406 66.613281 178.589844 68.121094 178.433594 69.824219 C 177.949219 75.097656 172.742188 81.738281 167.148438 80.632812 C 168.3125 75.464844 169.835938 70.757812 173.511719 67.1875 " fill-opacity="1" fill-rule="nonzero"/><path fill="#4c89b5" d="M 251.601562 62.625 C 253.882812 62.289062 255.433594 62.558594 257.863281 61.914062 C 259.855469 61.382812 262.261719 60.25 261.761719 57.558594 C 261.261719 54.863281 258.667969 53.609375 256.382812 53.40625 C 251.042969 52.921875 245.515625 53.308594 240.136719 53.898438 C 237.351562 54.199219 229.425781 54.296875 230.433594 59 C 231.003906 61.667969 233.296875 63.042969 235.632812 63.304688 C 237.964844 63.566406 239.203125 63.453125 241.316406 63.609375 C 240.292969 68.90625 239.113281 74.449219 238.703125 79.804688 C 238.171875 86.699219 237.917969 93.839844 238.703125 100.539062 C 239.195312 104.757812 241.550781 107.648438 245.738281 108.015625 C 249.921875 108.390625 251.835938 106.148438 252.769531 101.898438 C 253.628906 97.953125 253.277344 93.007812 252.902344 88.714844 C 252.148438 80.101562 251.894531 71.289062 251.601562 62.625 " fill-opacity="1" fill-rule="nonzero"/><path fill="#4c89b5" d="M 270.679688 63.574219 C 267.691406 63.976562 266.488281 65.695312 266.378906 68.914062 C 266.175781 75.023438 265.890625 81.230469 265.109375 87.28125 C 264.375 93.03125 264.25 99.089844 265.160156 104.820312 C 265.527344 107.140625 266.542969 109.832031 269.125 110.367188 C 271.417969 110.839844 273.5625 109.164062 274.707031 107.3125 C 276.003906 105.214844 275.714844 102.875 275.722656 100.507812 C 275.738281 95.054688 275.738281 89.609375 275.660156 84.160156 C 275.578125 78.765625 275.804688 73.402344 274.929688 67.996094 C 274.535156 65.582031 273.667969 63.167969 270.679688 63.574219 " fill-opacity="1" fill-rule="nonzero"/><path fill="#4c89b5" d="M 263.417969 51.882812 C 267.140625 52.996094 270 56.027344 270.875 59.816406 C 270.890625 59.898438 270.957031 59.933594 271.023438 59.949219 C 271.089844 59.941406 271.15625 59.90625 271.171875 59.832031 C 272.285156 56.109375 275.3125 53.25 279.105469 52.375 C 279.277344 52.332031 279.285156 52.085938 279.113281 52.039062 C 275.386719 50.925781 272.539062 47.894531 271.652344 44.101562 C 271.636719 44.019531 271.570312 43.988281 271.507812 43.972656 C 271.441406 43.980469 271.375 44.011719 271.351562 44.085938 C 270.238281 47.820312 267.207031 50.671875 263.417969 51.546875 C 263.253906 51.585938 263.242188 51.832031 263.417969 51.882812 " fill-opacity="1" fill-rule="nonzero"/><path fill="#4c89b5" d="M 408.90625 104.691406 L 410.148438 104.691406 L 410.148438 108.777344 C 410.148438 109.136719 410.4375 109.425781 410.796875 109.425781 C 411.15625 109.425781 411.441406 109.136719 411.441406 108.777344 L 411.441406 104.691406 L 412.679688 104.691406 C 413.007812 104.691406 413.277344 104.421875 413.277344 104.09375 C 413.277344 103.765625 413.007812 103.496094 412.679688 103.496094 L 408.90625 103.496094 C 408.578125 103.496094 408.308594 103.765625 408.308594 104.09375 C 408.308594 104.421875 408.578125 104.691406 408.90625 104.691406 " fill-opacity="1" fill-rule="nonzero"/><path fill="#4c89b5" d="M 419.445312 103.460938 L 419.296875 103.460938 C 419.035156 103.460938 418.855469 103.570312 418.714844 103.789062 L 417.144531 106.335938 L 415.585938 103.796875 C 415.472656 103.601562 415.277344 103.460938 414.996094 103.460938 L 414.851562 103.460938 C 414.488281 103.460938 414.203125 103.75 414.203125 104.109375 L 414.203125 108.785156 C 414.203125 109.136719 414.480469 109.417969 414.832031 109.417969 C 415.1875 109.417969 415.472656 109.136719 415.472656 108.785156 L 415.472656 105.871094 L 416.585938 107.589844 C 416.71875 107.785156 416.890625 107.917969 417.117188 107.917969 C 417.355469 107.917969 417.519531 107.792969 417.648438 107.589844 L 418.78125 105.847656 L 418.78125 108.769531 C 418.78125 109.121094 419.066406 109.417969 419.417969 109.417969 C 419.78125 109.417969 420.066406 109.128906 420.066406 108.769531 L 420.066406 104.101562 C 420.089844 103.75 419.804688 103.460938 419.445312 103.460938 " fill-opacity="1" fill-rule="nonzero"/><path fill="#4c89b5" d="M 94.292969 168.351562 C 90.863281 158.046875 92.394531 147.46875 92.945312 136.890625 C 92.992188 135.882812 93.074219 134.890625 93.125 133.875 C 93.441406 127.277344 93.738281 119.40625 91.78125 113.371094 C 90.28125 108.761719 88.808594 106.335938 84.222656 105.519531 C 80.457031 104.847656 78.472656 107.058594 76.425781 110.765625 C 74.222656 114.753906 72.25 118.867188 70.367188 123.007812 C 69.410156 125.121094 68.476562 127.25 67.542969 129.378906 C 66.765625 131.171875 66.09375 133.457031 64.585938 134.785156 C 64.308594 135.03125 63.972656 135.242188 63.613281 135.226562 C 63.105469 135.203125 62.734375 134.742188 62.441406 134.335938 C 57.371094 127.113281 54.980469 118.660156 50.429688 111.144531 C 48.757812 108.390625 46.785156 106.207031 43.671875 106.664062 C 39.25 107.328125 37.507812 109.285156 35.84375 113.757812 C 33.65625 119.621094 33.511719 127.265625 33.632812 133.792969 C 33.648438 134.800781 33.714844 135.734375 33.738281 136.726562 C 34.019531 147.238281 35.375 157.96875 31.816406 168.023438 C 30.496094 171.730469 30.332031 173.707031 33.394531 175.792969 C 36.464844 177.890625 39.070312 176.761719 41.773438 174.359375 C 44.140625 172.257812 45.300781 168.53125 45.660156 165.453125 C 46.457031 158.6875 46.25 152.242188 45.941406 145.601562 C 45.621094 138.96875 46.078125 132.550781 46.644531 125.957031 C 46.660156 125.761719 46.816406 125.472656 47.085938 125.507812 C 47.355469 125.546875 47.519531 125.652344 47.636719 126.007812 C 49.140625 130.476562 51.132812 136.234375 52.539062 140.433594 C 53.785156 144.152344 54.851562 147.945312 56.300781 151.597656 C 57.378906 154.324219 58.847656 159.121094 62.253906 159.605469 C 66.109375 160.152344 67.960938 155.527344 68.96875 152.710938 C 71.824219 144.734375 76.402344 132.851562 79.988281 124.105469 C 80.011719 124.042969 80.023438 124 80.09375 123.886719 C 80.167969 123.769531 80.585938 123.296875 80.792969 123.296875 C 80.996094 123.296875 80.832031 123.207031 81.039062 123.269531 C 81.242188 123.335938 81.472656 123.34375 81.453125 123.84375 C 81.4375 124.34375 81.40625 125.777344 81.390625 126.316406 C 81.324219 129.683594 81.183594 132.769531 81.109375 136.078125 C 81.070312 138.027344 81.003906 139.699219 80.890625 141.761719 C 80.464844 149.253906 79.839844 156.707031 80.488281 164.355469 C 80.757812 167.582031 81.832031 171.488281 84.132812 173.761719 C 86.753906 176.359375 89.078125 178.027344 92.542969 176.039062 C 95.582031 174.320312 95.582031 172.214844 94.292969 168.351562 " fill-opacity="1" fill-rule="nonzero"/></svg>